<svg id="logosandtypes_com" xmlns="http://www.w3.org/2000/svg" viewBox="0 0 150 150"><style>.st1{fill:#233f96}</style><path d="M0 0h150v150H0V0z" fill="none" id="Layer_3"/><g id="engemon"><g id="engemon_shapes1_2_"><path class="st1" d="M58.6 72.6c7 10.9 10 17.9 14.9 26.4 2 3.4 1.3 7.1-.8 10.4-3 4.8-6.1 9.5-9 14.3-1.8 2.9-2.4 5.9.6 8.5-11.3.1-22.6.3-33.8.2-5.5 0-7.8-4.1-4.8-8.8 10.5-16.4 22.2-34.6 32.9-51zM128.7 44.2c-15.2-.1-51.8 0-54.1 0-4.5-7-7-14-11.2-20.9-1.8-3-2-5.9 1.4-8.1h46c5.9 9 11.8 18.1 17.8 27.2.4.6.5 1.2.1 1.8z"/></g><path id="engemon_shapes2_2_" d="M25.9 24.5c-3.2-5.3-1.2-9.2 5-9.3 11.3-.1 22.6 0 33.8.1-3.4 2.2-3.2 5.1-1.4 8.1 4.3 6.9 22.2 35.4 26.8 41.7 4.5 6.1 4.8 11.3.1 17.5-4.7 6.3-8.7 13.3-13.4 20.6h52.8l-18.9 29.1H64.3c-3-2.6-2.4-5.6-.6-8.5 3-4.8 6.1-9.5 9-14.3 2-3.3 2.7-7 .8-10.4-4.9-8.5-43.7-68.3-47.6-74.6z" fill="#2caae1"/></g></svg>